<?xml version="1.0" encoding="UTF-8" standalone="no"?><svg xmlns="http://www.w3.org/2000/svg" xmlns:xlink="http://www.w3.org/1999/xlink" contentScriptType="application/ecmascript" contentStyleType="text/css" height="583px" preserveAspectRatio="none" style="width:687px;height:583px;" version="1.1" viewBox="0 0 687 583" width="687px" zoomAndPan="magnify"><defs><filter height="300%" id="f13lqg8tl7m9jj" width="300%" x="-1" y="-1"><feGaussianBlur result="blurOut" stdDeviation="2.0"/><feColorMatrix in="blurOut" result="blurOut2" type="matrix" values="0 0 0 0 0 0 0 0 0 0 0 0 0 0 0 0 0 0 .4 0"/><feOffset dx="4.0" dy="4.0" in="blurOut2" result="blurOut3"/><feBlend in="SourceGraphic" in2="blurOut3" mode="normal"/></filter></defs><g><rect fill="#FFFFFF" filter="url(#f13lqg8tl7m9jj)" height="29.1328" style="stroke:#A80036;stroke-width:1.0;" width="10" x="178.5" y="71.4297"/><rect fill="#FFFFFF" filter="url(#f13lqg8tl7m9jj)" height="29.1328" style="stroke:#A80036;stroke-width:1.0;" width="10" x="178.5" y="129.6953"/><rect fill="#FFFFFF" filter="url(#f13lqg8tl7m9jj)" height="44.2656" style="stroke:#A80036;stroke-width:1.0;" width="10" x="279.5" y="203.0938"/><rect fill="#FFFFFF" filter="url(#f13lqg8tl7m9jj)" height="29.1328" style="stroke:#A80036;stroke-width:1.0;" width="10" x="279.5" y="492.6875"/><rect fill="#FFFFFF" filter="url(#f13lqg8tl7m9jj)" height="29.1328" style="stroke:#A80036;stroke-width:1.0;" width="10" x="420.5" y="291.625"/><rect fill="#FFFFFF" filter="url(#f13lqg8tl7m9jj)" height="44.2656" style="stroke:#A80036;stroke-width:1.0;" width="10" x="420.5" y="404.1563"/><line style="stroke:#A80036;stroke-width:1.0;stroke-dasharray:5.0,5.0;" x1="33" x2="33" y1="40.2969" y2="539.8203"/><line style="stroke:#A80036;stroke-width:1.0;stroke-dasharray:5.0,5.0;" x1="183.5" x2="183.5" y1="40.2969" y2="539.8203"/><line style="stroke:#A80036;stroke-width:1.0;stroke-dasharray:5.0,5.0;" x1="284.5" x2="284.5" y1="40.2969" y2="539.8203"/><line style="stroke:#A80036;stroke-width:1.0;stroke-dasharray:5.0,5.0;" x1="425.5" x2="425.5" y1="40.2969" y2="539.8203"/><line style="stroke:#A80036;stroke-width:1.0;stroke-dasharray:5.0,5.0;" x1="592.5" x2="592.5" y1="40.2969" y2="539.8203"/><rect fill="#FEFECE" filter="url(#f13lqg8tl7m9jj)" height="30.2969" style="stroke:#A80036;stroke-width:1.5;" width="53" x="5" y="5"/><text fill="#000000" font-family="sans-serif" font-size="14" lengthAdjust="spacingAndGlyphs" textLength="39" x="12" y="24.9951">Signer</text><rect fill="#FEFECE" filter="url(#f13lqg8tl7m9jj)" height="30.2969" style="stroke:#A80036;stroke-width:1.5;" width="53" x="5" y="538.8203"/><text fill="#000000" font-family="sans-serif" font-size="14" lengthAdjust="spacingAndGlyphs" textLength="39" x="12" y="558.8154">Signer</text><rect fill="#FEFECE" filter="url(#f13lqg8tl7m9jj)" height="30.2969" style="stroke:#A80036;stroke-width:1.5;" width="42" x="160.5" y="5"/><text fill="#000000" font-family="sans-serif" font-size="14" lengthAdjust="spacingAndGlyphs" textLength="28" x="167.5" y="24.9951">GPG</text><rect fill="#FEFECE" filter="url(#f13lqg8tl7m9jj)" height="30.2969" style="stroke:#A80036;stroke-width:1.5;" width="42" x="160.5" y="538.8203"/><text fill="#000000" font-family="sans-serif" font-size="14" lengthAdjust="spacingAndGlyphs" textLength="28" x="167.5" y="558.8154">GPG</text><rect fill="#FEFECE" filter="url(#f13lqg8tl7m9jj)" height="30.2969" style="stroke:#A80036;stroke-width:1.5;" width="132" x="216.5" y="5"/><text fill="#000000" font-family="sans-serif" font-size="14" lengthAdjust="spacingAndGlyphs" textLength="118" x="223.5" y="24.9951">Bitcoin Blockchain</text><rect fill="#FEFECE" filter="url(#f13lqg8tl7m9jj)" height="30.2969" style="stroke:#A80036;stroke-width:1.5;" width="132" x="216.5" y="538.8203"/><text fill="#000000" font-family="sans-serif" font-size="14" lengthAdjust="spacingAndGlyphs" textLength="118" x="223.5" y="558.8154">Bitcoin Blockchain</text><rect fill="#FEFECE" filter="url(#f13lqg8tl7m9jj)" height="30.2969" style="stroke:#A80036;stroke-width:1.5;" width="122" x="362.5" y="5"/><text fill="#000000" font-family="sans-serif" font-size="14" lengthAdjust="spacingAndGlyphs" textLength="108" x="369.5" y="24.9951">Sidechain (Nostr)</text><rect fill="#FEFECE" filter="url(#f13lqg8tl7m9jj)" height="30.2969" style="stroke:#A80036;stroke-width:1.5;" width="122" x="362.5" y="538.8203"/><text fill="#000000" font-family="sans-serif" font-size="14" lengthAdjust="spacingAndGlyphs" textLength="108" x="369.5" y="558.8154">Sidechain (Nostr)</text><rect fill="#FEFECE" filter="url(#f13lqg8tl7m9jj)" height="30.2969" style="stroke:#A80036;stroke-width:1.5;" width="60" x="560.5" y="5"/><text fill="#000000" font-family="sans-serif" font-size="14" lengthAdjust="spacingAndGlyphs" textLength="46" x="567.5" y="24.9951">Verifier</text><rect fill="#FEFECE" filter="url(#f13lqg8tl7m9jj)" height="30.2969" style="stroke:#A80036;stroke-width:1.5;" width="60" x="560.5" y="538.8203"/><text fill="#000000" font-family="sans-serif" font-size="14" lengthAdjust="spacingAndGlyphs" textLength="46" x="567.5" y="558.8154">Verifier</text><rect fill="#FFFFFF" filter="url(#f13lqg8tl7m9jj)" height="29.1328" style="stroke:#A80036;stroke-width:1.0;" width="10" x="178.5" y="71.4297"/><rect fill="#FFFFFF" filter="url(#f13lqg8tl7m9jj)" height="29.1328" style="stroke:#A80036;stroke-width:1.0;" width="10" x="178.5" y="129.6953"/><rect fill="#FFFFFF" filter="url(#f13lqg8tl7m9jj)" height="44.2656" style="stroke:#A80036;stroke-width:1.0;" width="10" x="279.5" y="203.0938"/><rect fill="#FFFFFF" filter="url(#f13lqg8tl7m9jj)" height="29.1328" style="stroke:#A80036;stroke-width:1.0;" width="10" x="279.5" y="492.6875"/><rect fill="#FFFFFF" filter="url(#f13lqg8tl7m9jj)" height="29.1328" style="stroke:#A80036;stroke-width:1.0;" width="10" x="420.5" y="291.625"/><rect fill="#FFFFFF" filter="url(#f13lqg8tl7m9jj)" height="44.2656" style="stroke:#A80036;stroke-width:1.0;" width="10" x="420.5" y="404.1563"/><polygon fill="#A80036" points="166.5,67.4297,176.5,71.4297,166.5,75.4297,170.5,71.4297" style="stroke:#A80036;stroke-width:1.0;"/><line style="stroke:#A80036;stroke-width:1.0;" x1="33.5" x2="172.5" y1="71.4297" y2="71.4297"/><text fill="#000000" font-family="sans-serif" font-size="13" lengthAdjust="spacingAndGlyphs" textLength="79" x="40.5" y="66.3638">Sign message</text><polygon fill="#A80036" points="44.5,96.5625,34.5,100.5625,44.5,104.5625,40.5,100.5625" style="stroke:#A80036;stroke-width:1.0;"/><line style="stroke:#A80036;stroke-width:1.0;" x1="38.5" x2="182.5" y1="100.5625" y2="100.5625"/><text fill="#000000" font-family="sans-serif" font-size="13" lengthAdjust="spacingAndGlyphs" textLength="94" x="50.5" y="95.4966">Signed message</text><polygon fill="#A80036" points="166.5,125.6953,176.5,129.6953,166.5,133.6953,170.5,129.6953" style="stroke:#A80036;stroke-width:1.0;"/><line style="stroke:#A80036;stroke-width:1.0;" x1="33.5" x2="172.5" y1="129.6953" y2="129.6953"/><text fill="#000000" font-family="sans-serif" font-size="13" lengthAdjust="spacingAndGlyphs" textLength="126" x="40.5" y="124.6294">Hash signed message</text><polygon fill="#A80036" points="44.5,154.8281,34.5,158.8281,44.5,162.8281,40.5,158.8281" style="stroke:#A80036;stroke-width:1.0;"/><line style="stroke:#A80036;stroke-width:1.0;" x1="38.5" x2="182.5" y1="158.8281" y2="158.8281"/><text fill="#000000" font-family="sans-serif" font-size="13" lengthAdjust="spacingAndGlyphs" textLength="83" x="50.5" y="153.7622">Message hash</text><polygon fill="#A80036" points="267.5,199.0938,277.5,203.0938,267.5,207.0938,271.5,203.0938" style="stroke:#A80036;stroke-width:1.0;"/><line style="stroke:#A80036;stroke-width:1.0;" x1="33.5" x2="273.5" y1="203.0938" y2="203.0938"/><text fill="#000000" font-family="sans-serif" font-size="13" lengthAdjust="spacingAndGlyphs" textLength="117" x="40.5" y="182.895">Store message hash</text><text fill="#000000" font-family="sans-serif" font-size="13" lengthAdjust="spacingAndGlyphs" textLength="92" x="40.5" y="198.0278">(in OP_RETURN)</text><polygon fill="#A80036" points="44.5,243.3594,34.5,247.3594,44.5,251.3594,40.5,247.3594" style="stroke:#A80036;stroke-width:1.0;"/><line style="stroke:#A80036;stroke-width:1.0;" x1="38.5" x2="283.5" y1="247.3594" y2="247.3594"/><text fill="#000000" font-family="sans-serif" font-size="13" lengthAdjust="spacingAndGlyphs" textLength="86" x="50.5" y="227.1606">Transaction ID</text><text fill="#000000" font-family="sans-serif" font-size="13" lengthAdjust="spacingAndGlyphs" textLength="101" x="50.5" y="242.2935">(Block Reference)</text><polygon fill="#A80036" points="408.5,287.625,418.5,291.625,408.5,295.625,412.5,291.625" style="stroke:#A80036;stroke-width:1.0;"/><line style="stroke:#A80036;stroke-width:1.0;" x1="33.5" x2="414.5" y1="291.625" y2="291.625"/><text fill="#000000" font-family="sans-serif" font-size="13" lengthAdjust="spacingAndGlyphs" textLength="139" x="40.5" y="271.4263">Publish signed message</text><text fill="#000000" font-family="sans-serif" font-size="13" lengthAdjust="spacingAndGlyphs" textLength="127" x="40.5" y="286.5591">with TX ID &amp; Block Ref</text><polygon fill="#A80036" points="44.5,316.7578,34.5,320.7578,44.5,324.7578,40.5,320.7578" style="stroke:#A80036;stroke-width:1.0;"/><line style="stroke:#A80036;stroke-width:1.0;" x1="38.5" x2="424.5" y1="320.7578" y2="320.7578"/><text fill="#000000" font-family="sans-serif" font-size="13" lengthAdjust="spacingAndGlyphs" textLength="77" x="50.5" y="315.6919">Confirmation</text><path d="M502,333.7578 L502,358.7578 L678,358.7578 L678,343.7578 L668,333.7578 L502,333.7578 " fill="#FBFB77" filter="url(#f13lqg8tl7m9jj)" style="stroke:#A80036;stroke-width:1.0;"/><path d="M668,333.7578 L668,343.7578 L678,343.7578 L668,333.7578 " fill="#FBFB77" style="stroke:#A80036;stroke-width:1.0;"/><text fill="#000000" font-family="sans-serif" font-size="13" lengthAdjust="spacingAndGlyphs" textLength="155" x="508" y="350.8247">Verifier accesses Sidechain</text><polygon fill="#A80036" points="441.5,400.1563,431.5,404.1563,441.5,408.1563,437.5,404.1563" style="stroke:#A80036;stroke-width:1.0;"/><line style="stroke:#A80036;stroke-width:1.0;" x1="435.5" x2="591.5" y1="404.1563" y2="404.1563"/><text fill="#000000" font-family="sans-serif" font-size="13" lengthAdjust="spacingAndGlyphs" textLength="143" x="447.5" y="383.9575">Retrieve signed message</text><text fill="#000000" font-family="sans-serif" font-size="13" lengthAdjust="spacingAndGlyphs" textLength="125" x="447.5" y="399.0903">and TX ID &amp; Block Ref</text><polygon fill="#A80036" points="580.5,444.4219,590.5,448.4219,580.5,452.4219,584.5,448.4219" style="stroke:#A80036;stroke-width:1.0;"/><line style="stroke:#A80036;stroke-width:1.0;" x1="425.5" x2="586.5" y1="448.4219" y2="448.4219"/><text fill="#000000" font-family="sans-serif" font-size="13" lengthAdjust="spacingAndGlyphs" textLength="94" x="432.5" y="428.2231">Signed message</text><text fill="#000000" font-family="sans-serif" font-size="13" lengthAdjust="spacingAndGlyphs" textLength="99" x="432.5" y="443.356">TX ID &amp; Block Ref</text><polygon fill="#A80036" points="300.5,488.6875,290.5,492.6875,300.5,496.6875,296.5,492.6875" style="stroke:#A80036;stroke-width:1.0;"/><line style="stroke:#A80036;stroke-width:1.0;" x1="294.5" x2="591.5" y1="492.6875" y2="492.6875"/><text fill="#000000" font-family="sans-serif" font-size="13" lengthAdjust="spacingAndGlyphs" textLength="118" x="306.5" y="472.4888">Verify message hash</text><text fill="#000000" font-family="sans-serif" font-size="13" lengthAdjust="spacingAndGlyphs" textLength="127" x="306.5" y="487.6216">with TX ID &amp; Block Ref</text><polygon fill="#A80036" points="580.5,517.8203,590.5,521.8203,580.5,525.8203,584.5,521.8203" style="stroke:#A80036;stroke-width:1.0;"/><line style="stroke:#A80036;stroke-width:1.0;" x1="284.5" x2="586.5" y1="521.8203" y2="521.8203"/><text fill="#000000" font-family="sans-serif" font-size="13" lengthAdjust="spacingAndGlyphs" textLength="101" x="291.5" y="516.7544">Verification result</text><!--MD5=[f2e2878bdf8750a81f05c11271e4644a]
@startuml
participant "Signer" as Signer
participant "GPG" as GPG
participant "Bitcoin Blockchain" as Blockchain
participant "Sidechain (Nostr)" as Sidechain
participant "Verifier" as Verifier

Signer -> GPG: Sign message
activate GPG
GPG -> Signer: Signed message
deactivate GPG

Signer -> GPG: Hash signed message
activate GPG
GPG -> Signer: Message hash
deactivate GPG

Signer -> Blockchain: Store message hash\n(in OP_RETURN)
activate Blockchain
Blockchain -> Signer: Transaction ID\n(Block Reference)
deactivate Blockchain

Signer -> Sidechain: Publish signed message\nwith TX ID & Block Ref
activate Sidechain
Sidechain -> Signer: Confirmation
deactivate Sidechain

note over Verifier: Verifier accesses Sidechain

Verifier -> Sidechain: Retrieve signed message\nand TX ID & Block Ref
activate Sidechain
Sidechain -> Verifier: Signed message\nTX ID & Block Ref
deactivate Sidechain

Verifier -> Blockchain: Verify message hash\nwith TX ID & Block Ref
activate Blockchain
Blockchain -> Verifier: Verification result
deactivate Blockchain

@enduml

PlantUML version 1.2020.23(Sun Dec 13 19:14:58 GMT 2020)
(GPL source distribution)
Java Runtime: OpenJDK Runtime Environment
JVM: OpenJDK 64-Bit Server VM
Default Encoding: UTF-8
Language: en
Country: US
--></g></svg>